<svg width="100" height="100" viewBox="0 0 100 100" fill="none" xmlns="http://www.w3.org/2000/svg">
<g id="arrow">
<path id="inner" d="M38.1155 48.8537L11.8112 8.78272C11.4905 8.29422 10.9454 8 10.361 8C8.98116 8 8.1537 9.53304 8.91093 10.6866L34.686 49.9512C34.9047 50.2844 34.9047 50.7156 34.686 51.0488L8.91092 90.3134C8.15369 91.467 8.98117 93 10.361 93C10.9454 93 11.4905 92.7058 11.8112 92.2173L38.1155 52.1463C38.7716 51.1468 38.7716 49.8532 38.1155 48.8537Z" fill="black" stroke="black" stroke-width="2"/>
<path id="outer" d="M64.1155 48.8537L37.8112 8.78272C37.4905 8.29422 36.9454 8 36.361 8C34.9812 8 34.1537 9.53304 34.9109 10.6866L60.686 49.9512C60.9047 50.2844 60.9047 50.7156 60.686 51.0488L34.9109 90.3134C34.1537 91.467 34.9812 93 36.361 93C36.9454 93 37.4905 92.7058 37.8112 92.2173L64.1155 52.1463C64.7716 51.1468 64.7716 49.8532 64.1155 48.8537Z" fill="black" stroke="black" stroke-width="2"/>
</g>
</svg>
