<svg width="19" height="24" viewBox="0 0 19 24" fill="none" xmlns="http://www.w3.org/2000/svg">
<path d="M9.48389 12.5232C8.65509 12.5232 7.86023 12.2071 7.27418 11.6445C6.68813 11.0819 6.35889 10.3188 6.35889 9.52319C6.35889 8.72754 6.68813 7.96448 7.27418 7.40187C7.86023 6.83926 8.65509 6.52319 9.48389 6.52319C10.3127 6.52319 11.1075 6.83926 11.6936 7.40187C12.2796 7.96448 12.6089 8.72754 12.6089 9.52319C12.6089 10.3188 12.2796 11.0819 11.6936 11.6445C11.1075 12.2071 10.3127 12.5232 9.48389 12.5232ZM9.48389 14.0232C10.7271 14.0232 11.9194 13.5491 12.7985 12.7052C13.6775 11.8613 14.1714 10.7167 14.1714 9.52319C14.1714 8.32972 13.6775 7.18513 12.7985 6.34121C11.9194 5.4973 10.7271 5.02319 9.48389 5.02319C8.24068 5.02319 7.0484 5.4973 6.16932 6.34121C5.29025 7.18513 4.79639 8.32972 4.79639 9.52319C4.79639 10.7167 5.29025 11.8613 6.16932 12.7052C7.0484 13.5491 8.24068 14.0232 9.48389 14.0232Z" fill="white"/>
<path d="M15.8844 13.41C15.0656 15.003 13.9563 16.59 12.8219 18.015C11.7446 19.3575 10.594 20.6443 9.375 21.87C8.15596 20.6443 7.00539 19.3575 5.92813 18.015C4.79375 16.59 3.68438 15.003 2.86563 13.41C2.0375 11.8005 1.5625 10.293 1.5625 9C1.5625 7.01088 2.3856 5.10322 3.85073 3.6967C5.31586 2.29018 7.303 1.5 9.375 1.5C11.447 1.5 13.4341 2.29018 14.8993 3.6967C16.3644 5.10322 17.1875 7.01088 17.1875 9C17.1875 10.293 16.7109 11.8005 15.8844 13.41ZM9.375 24C9.375 24 18.75 15.471 18.75 9C18.75 6.61305 17.7623 4.32387 16.0041 2.63604C14.246 0.948211 11.8614 0 9.375 0C6.8886 0 4.50403 0.948211 2.74587 2.63604C0.98772 4.32387 3.70503e-08 6.61305 0 9C0 15.471 9.375 24 9.375 24Z" fill="white"/>
</svg>
